<?xml version="1.0" encoding="UTF-8"?>
<svg xmlns="http://www.w3.org/2000/svg" version="1.1" viewBox="0 0 1944 13500">
  <!-- Generator: Adobe Illustrator 30.1.0, SVG Export Plug-In . SVG Version: 2.1.1 Build 136)  -->
  <defs>
    <style>
      .st0 {
        fill: #ed1c24;
      }

      .st1 {
        fill: #f1f2f2;
        fill-rule: evenodd;
        stroke: #ed1c24;
        stroke-dasharray: 18 18;
      }

      .st2 {
        fill: #fff;
      }

      .st3 {
        fill: #1c75bc;
      }

      .st4 {
        fill: #be1e2d;
        stroke: #231f20;
      }

      .st5 {
        display: none;
      }
    </style>
  </defs>
  <g id="BACKGROUND_-_Delete_before_saving" class="st5">
    <rect class="st2" y="9" width="1944" height="13482"/>
  </g>
  <g id="ARTWORK_HERE" class="st5">
    <rect class="st4" x="300.2" y="91.7" width="1600.5" height="2780.3"/>
  </g>
  <g id="TEMPLATE_MASK_-_Do_not_adjust">
    <path class="st1" d="M0,0v13500h1944V0H0ZM1852.5,12377.6v-7.1l-1726.5,992.9,16.3-11146.5S211.3,586.2,1861.9,138.3l-9.4,12239.3Z"/>
    <g>
      <path class="st3" d="M58.7,60.9h16.3v3.3h-12.4v10.1h11.5v3.2h-11.5v13.7h-3.9v-30.3Z"/>
      <path class="st3" d="M81.3,81c0,5.4,3.5,7.6,7.5,7.6s4.5-.5,6-1.1l.7,2.8c-1.4.6-3.8,1.3-7.2,1.3-6.7,0-10.7-4.4-10.7-11s3.9-11.7,10.2-11.7,9,6.3,9,10.3,0,1.4-.1,1.8h-15.3ZM92.9,78.2c0-2.5-1-6.4-5.5-6.4s-5.8,3.7-6.1,6.4h11.6Z"/>
      <path class="st3" d="M113.7,91.2l-.3-2.7h-.1c-1.2,1.7-3.6,3.2-6.7,3.2-4.4,0-6.7-3.1-6.7-6.3,0-5.3,4.7-8.1,13.1-8.1v-.5c0-1.8-.5-5-4.9-5s-4.1.6-5.7,1.6l-.9-2.6c1.8-1.2,4.4-1.9,7.2-1.9,6.7,0,8.3,4.5,8.3,8.9v8.1c0,1.9,0,3.7.4,5.2h-3.6ZM113.1,80.1c-4.3,0-9.2.7-9.2,4.9s1.7,3.8,3.7,3.8,4.6-1.8,5.3-3.6c.1-.4.2-.9.2-1.3v-3.8Z"/>
      <path class="st3" d="M127.9,63.1v6.3h5.7v3h-5.7v11.7c0,2.7.8,4.2,3,4.2s1.8-.1,2.3-.3l.2,3c-.8.3-2,.5-3.5.5s-3.3-.6-4.3-1.7c-1.1-1.2-1.5-3.1-1.5-5.7v-11.9h-3.4v-3h3.4v-5.2l3.9-1Z"/>
      <path class="st3" d="M138.1,59.2h4v13.6h0c.6-1.1,1.6-2.1,2.8-2.8,1.2-.7,2.6-1.1,4-1.1,2.9,0,7.6,1.8,7.6,9.3v13h-4v-12.5c0-3.5-1.3-6.5-5-6.5s-4.6,1.8-5.3,4c-.2.5-.3,1.1-.3,1.9v13.1h-4v-31.9Z"/>
      <path class="st3" d="M165.2,81c0,5.4,3.5,7.6,7.5,7.6s4.5-.5,6-1.1l.7,2.8c-1.4.6-3.8,1.3-7.2,1.3-6.7,0-10.7-4.4-10.7-11s3.9-11.7,10.2-11.7,9,6.3,9,10.3,0,1.4-.1,1.8h-15.3ZM176.8,78.2c0-2.5-1-6.4-5.5-6.4s-5.8,3.7-6.1,6.4h11.6Z"/>
      <path class="st3" d="M185.6,76.2c0-2.6,0-4.8-.2-6.8h3.5v4.3h.3c1-2.9,3.4-4.8,6-4.8s.8,0,1.1.1v3.7c-.4,0-.8-.1-1.4-.1-2.8,0-4.8,2.1-5.3,5.1,0,.5-.2,1.2-.2,1.8v11.6h-3.9v-15Z"/>
      <path class="st3" d="M214.9,81.6l-3.1,9.5h-4l10.3-30.3h4.7l10.3,30.3h-4.2l-3.2-9.5h-10.8ZM224.8,78.6l-3-8.7c-.7-2-1.1-3.8-1.6-5.5h0c-.4,1.8-.9,3.6-1.5,5.5l-3,8.8h9.1Z"/>
      <path class="st3" d="M237.2,75.3c0-2.2,0-4.1-.2-5.9h3.5l.2,3.6h0c1.1-2.1,3.6-4.1,7.2-4.1s7.7,1.8,7.7,9.3v13h-4v-12.6c0-3.5-1.3-6.4-5-6.4s-4.6,1.8-5.3,4c-.2.5-.3,1.2-.3,1.8v13.1h-4v-15.9Z"/>
      <path class="st3" d="M281,69.4c0,1.6-.2,3.3-.2,6v12.6c0,5-1,8.1-3.1,9.9-2.1,2-5.2,2.6-7.9,2.6s-5.5-.6-7.2-1.8l1-3c1.4.9,3.7,1.7,6.4,1.7,4,0,7-2.1,7-7.6v-2.4h0c-1.2,2-3.6,3.6-6.9,3.6-5.4,0-9.3-4.6-9.3-10.6s4.8-11.6,9.8-11.6,5.8,2,6.8,3.8h0l.2-3.3h3.5ZM276.9,78c0-.7,0-1.3-.2-1.8-.7-2.3-2.7-4.2-5.5-4.2s-6.5,3.2-6.5,8.2,2.2,7.8,6.4,7.8,4.6-1.5,5.5-4c.2-.7.3-1.4.3-2.1v-3.9Z"/>
      <path class="st3" d="M287.4,59.2h4v31.9h-4v-31.9Z"/>
      <path class="st3" d="M300.2,81c0,5.4,3.5,7.6,7.5,7.6s4.5-.5,6-1.1l.7,2.8c-1.4.6-3.8,1.3-7.2,1.3-6.7,0-10.7-4.4-10.7-11s3.9-11.7,10.2-11.7,9,6.3,9,10.3,0,1.4-.1,1.8h-15.3ZM311.8,78.2c0-2.5-1-6.4-5.5-6.4s-5.8,3.7-6.1,6.4h11.6Z"/>
      <path class="st3" d="M339.3,59.2v26.3c0,1.9,0,4.1.2,5.6h-3.6l-.2-3.8h0c-1.2,2.4-3.9,4.3-7.4,4.3-5.3,0-9.3-4.5-9.3-11.1,0-7.2,4.5-11.7,9.8-11.7s5.6,1.6,6.6,3.3h0v-13h4ZM335.4,78.3c0-.5,0-1.2-.2-1.7-.6-2.5-2.7-4.6-5.7-4.6s-6.5,3.6-6.5,8.4,2.2,8.1,6.4,8.1,5.1-1.8,5.8-4.7c.1-.5.2-1.1.2-1.7v-3.8Z"/>
      <path class="st3" d="M355.6,60.9h16.3v3.3h-12.4v10.1h11.5v3.2h-11.5v13.7h-3.9v-30.3Z"/>
      <path class="st3" d="M376.6,59.2h4v31.9h-4v-31.9Z"/>
      <path class="st3" d="M399.3,91.2l-.3-2.7h-.1c-1.2,1.7-3.6,3.2-6.7,3.2-4.4,0-6.7-3.1-6.7-6.3,0-5.3,4.7-8.1,13.1-8.1v-.5c0-1.8-.5-5-4.9-5s-4.1.6-5.7,1.6l-.9-2.6c1.8-1.2,4.4-1.9,7.2-1.9,6.7,0,8.3,4.5,8.3,8.9v8.1c0,1.9,0,3.7.4,5.2h-3.6ZM398.7,80.1c-4.3,0-9.2.7-9.2,4.9s1.7,3.8,3.7,3.8,4.6-1.8,5.3-3.6c.1-.4.2-.9.2-1.3v-3.8Z"/>
      <path class="st3" d="M427.7,69.4c0,1.6-.2,3.3-.2,6v12.6c0,5-1,8.1-3.1,9.9-2.1,2-5.2,2.6-7.9,2.6s-5.5-.6-7.2-1.8l1-3c1.4.9,3.7,1.7,6.4,1.7,4,0,7-2.1,7-7.6v-2.4h0c-1.2,2-3.6,3.6-6.9,3.6-5.4,0-9.3-4.6-9.3-10.6s4.8-11.6,9.8-11.6,5.8,2,6.8,3.8h0l.2-3.3h3.5ZM423.6,78c0-.7,0-1.3-.2-1.8-.7-2.3-2.7-4.2-5.5-4.2s-6.5,3.2-6.5,8.2,2.2,7.8,6.4,7.8,4.6-1.5,5.5-4c.2-.7.3-1.4.3-2.1v-3.9Z"/>
      <path class="st3" d="M460.3,91.2l-3.9-6.7c-1.6-2.6-2.6-4.2-3.5-6h0c-.9,1.8-1.7,3.4-3.3,6l-3.6,6.7h-4.5l9.3-15.3-8.9-15h4.5l4,7.1c1.1,2,2,3.5,2.8,5.1h.1c.9-1.8,1.6-3.2,2.7-5.1l4.1-7.1h4.5l-9.2,14.8,9.4,15.6h-4.5Z"/>
      <path class="st3" d="M477.5,77.5v2.9h-11.1v-2.9h11.1Z"/>
      <path class="st3" d="M482.3,60.9h3.9v27h13v3.3h-16.9v-30.3Z"/>
      <path class="st3" d="M515.5,91.2l-.3-2.7h-.1c-1.2,1.7-3.6,3.2-6.7,3.2-4.4,0-6.7-3.1-6.7-6.3,0-5.3,4.7-8.1,13.1-8.1v-.5c0-1.8-.5-5-4.9-5s-4.1.6-5.7,1.6l-.9-2.6c1.8-1.2,4.4-1.9,7.2-1.9,6.7,0,8.3,4.5,8.3,8.9v8.1c0,1.9,0,3.7.4,5.2h-3.6ZM514.9,80.1c-4.3,0-9.2.7-9.2,4.9s1.7,3.8,3.7,3.8,4.6-1.8,5.3-3.6c.1-.4.2-.9.2-1.3v-3.8Z"/>
      <path class="st3" d="M525.1,76.2c0-2.6,0-4.8-.2-6.8h3.5v4.3h.3c1-2.9,3.4-4.8,6-4.8s.8,0,1.1.1v3.7c-.4,0-.8-.1-1.4-.1-2.8,0-4.8,2.1-5.3,5.1,0,.5-.2,1.2-.2,1.8v11.6h-3.9v-15Z"/>
      <path class="st3" d="M558.2,69.4c0,1.6-.2,3.3-.2,6v12.6c0,5-1,8.1-3.1,9.9-2.1,2-5.2,2.6-7.9,2.6s-5.5-.6-7.2-1.8l1-3c1.4.9,3.7,1.7,6.4,1.7,4,0,7-2.1,7-7.6v-2.4h0c-1.2,2-3.6,3.6-6.9,3.6-5.4,0-9.3-4.6-9.3-10.6s4.8-11.6,9.8-11.6,5.8,2,6.8,3.8h0l.2-3.3h3.5ZM554.1,78c0-.7,0-1.3-.2-1.8-.7-2.3-2.7-4.2-5.5-4.2s-6.5,3.2-6.5,8.2,2.2,7.8,6.4,7.8,4.6-1.5,5.5-4c.2-.7.3-1.4.3-2.1v-3.9Z"/>
      <path class="st3" d="M566.8,81c0,5.4,3.5,7.6,7.5,7.6s4.5-.5,6-1.1l.7,2.8c-1.4.6-3.8,1.3-7.2,1.3-6.7,0-10.7-4.4-10.7-11s3.9-11.7,10.2-11.7,9,6.3,9,10.3,0,1.4-.1,1.8h-15.3ZM578.4,78.2c0-2.5-1-6.4-5.5-6.4s-5.8,3.7-6.1,6.4h11.6Z"/>
      <path class="st3" d="M604,65.6h0l-5.1,2.7-.8-3,6.4-3.4h3.4v29.2h-3.8v-25.6Z"/>
      <path class="st3" d="M618.2,83.8c0-3.7,2.2-6.3,5.8-7.8h0c-3.2-1.7-4.6-4.2-4.6-6.7,0-4.6,3.9-7.8,9-7.8s8.5,3.6,8.5,7.2-1.2,5.1-4.8,6.8h0c3.6,1.6,5.9,4.1,5.9,7.7,0,5.1-4.4,8.5-9.9,8.5s-9.8-3.6-9.8-7.9ZM633.9,83.6c0-3.6-2.5-5.3-6.4-6.4-3.4,1-5.3,3.2-5.3,6-.1,3,2.1,5.6,5.8,5.6s5.8-2.2,5.8-5.2ZM623,69c0,2.9,2.2,4.5,5.6,5.4,2.5-.9,4.5-2.7,4.5-5.3s-1.4-4.8-4.9-4.8-5.1,2.2-5.1,4.7Z"/>
      <path class="st3" d="M652.8,91.2v-18.8h-3.1v-3h3.1v-1c0-3.1.7-5.8,2.5-7.6,1.5-1.4,3.5-2,5.3-2s2.6.3,3.4.6l-.5,3.1c-.6-.3-1.4-.5-2.5-.5-3.4,0-4.2,3-4.2,6.3v1.2h5.3v3h-5.3v18.8h-3.9Z"/>
      <path class="st3" d="M670.8,63.1v6.3h5.7v3h-5.7v11.7c0,2.7.8,4.2,3,4.2s1.8-.1,2.3-.3l.2,3c-.8.3-2,.5-3.5.5s-3.3-.6-4.3-1.7c-1.1-1.2-1.5-3.1-1.5-5.7v-11.9h-3.4v-3h3.4v-5.2l3.9-1Z"/>
      <path class="st3" d="M679.8,88.8c0-1.7,1.1-2.8,2.7-2.8s2.7,1.2,2.7,2.8-1,2.8-2.7,2.8-2.7-1.2-2.7-2.8Z"/>
      <path class="st3" d="M58.2,140.4c1.8,1.1,4.3,2,7,2,4,0,6.3-2.1,6.3-5.2s-1.6-4.5-5.7-6c-5-1.8-8-4.3-8-8.6s3.9-8.2,9.8-8.2,5.4.7,6.7,1.5l-1.1,3.2c-1-.5-3-1.4-5.8-1.4-4.1,0-5.7,2.5-5.7,4.5s1.8,4.2,6,5.8c5.1,2,7.7,4.5,7.7,8.9s-3.5,8.7-10.6,8.7-6.1-.9-7.7-1.9l1-3.3Z"/>
      <path class="st3" d="M85.2,117.3c0,1.4-.9,2.4-2.5,2.4s-2.4-1.1-2.4-2.4,1-2.5,2.5-2.5,2.4,1.1,2.4,2.5ZM80.8,145.2v-21.8h4v21.8h-4Z"/>
      <path class="st3" d="M91.3,129.3c0-2.2,0-4.1-.2-5.9h3.5l.2,3.6h0c1.1-2.1,3.6-4.1,7.2-4.1s7.7,1.8,7.7,9.3v13h-4v-12.6c0-3.5-1.3-6.4-5-6.4s-4.6,1.8-5.3,4c-.2.5-.3,1.2-.3,1.8v13.1h-4v-15.9Z"/>
      <path class="st3" d="M135,123.4c0,1.6-.2,3.3-.2,6v12.6c0,5-1,8.1-3.1,9.9-2.1,2-5.2,2.6-7.9,2.6s-5.5-.6-7.2-1.8l1-3c1.4.9,3.7,1.7,6.4,1.7,4,0,7-2.1,7-7.6v-2.4h0c-1.2,2-3.6,3.6-6.9,3.6-5.4,0-9.3-4.6-9.3-10.6s4.8-11.6,9.8-11.6,5.8,2,6.8,3.8h0l.2-3.3h3.5ZM130.9,132c0-.7,0-1.3-.2-1.8-.7-2.3-2.7-4.2-5.5-4.2s-6.5,3.2-6.5,8.2,2.2,7.8,6.4,7.8,4.6-1.5,5.5-4c.2-.7.3-1.4.3-2.1v-3.9Z"/>
      <path class="st3" d="M141.4,113.2h4v31.9h-4v-31.9Z"/>
      <path class="st3" d="M154.3,135c0,5.4,3.5,7.6,7.5,7.6s4.5-.5,6-1.1l.7,2.8c-1.4.6-3.8,1.3-7.2,1.3-6.7,0-10.7-4.4-10.7-11s3.9-11.7,10.2-11.7,9,6.3,9,10.3,0,1.4-.1,1.8h-15.3ZM165.9,132.2c0-2.5-1-6.4-5.5-6.4s-5.8,3.7-6.1,6.4h11.6Z"/>
      <path class="st3" d="M183.7,140.4c1.8,1.1,4.3,2,7,2,4,0,6.3-2.1,6.3-5.2s-1.6-4.5-5.7-6c-5-1.8-8-4.3-8-8.6s3.9-8.2,9.8-8.2,5.4.7,6.7,1.5l-1.1,3.2c-1-.5-3-1.4-5.8-1.4-4.1,0-5.7,2.5-5.7,4.5s1.8,4.2,6,5.8c5.1,2,7.7,4.5,7.7,8.9s-3.5,8.7-10.6,8.7-6.1-.9-7.7-1.9l1-3.3Z"/>
      <path class="st3" d="M210.7,117.3c0,1.4-.9,2.4-2.5,2.4s-2.4-1.1-2.4-2.4,1-2.5,2.5-2.5,2.4,1.1,2.4,2.5ZM206.3,145.2v-21.8h4v21.8h-4Z"/>
      <path class="st3" d="M235.7,113.2v26.3c0,1.9,0,4.1.2,5.6h-3.6l-.2-3.8h0c-1.2,2.4-3.9,4.3-7.4,4.3-5.3,0-9.3-4.5-9.3-11.1,0-7.2,4.5-11.7,9.8-11.7s5.6,1.6,6.6,3.3h0v-13h4ZM231.7,132.3c0-.5,0-1.2-.2-1.7-.6-2.5-2.7-4.6-5.7-4.6s-6.5,3.6-6.5,8.4,2.2,8.1,6.4,8.1,5.1-1.8,5.8-4.7c.1-.5.2-1.1.2-1.7v-3.8Z"/>
      <path class="st3" d="M244.4,135c0,5.4,3.5,7.6,7.5,7.6s4.5-.5,6-1.1l.7,2.8c-1.4.6-3.8,1.3-7.2,1.3-6.7,0-10.7-4.4-10.7-11s3.9-11.7,10.2-11.7,9,6.3,9,10.3,0,1.4-.1,1.8h-15.3ZM256,132.2c0-2.5-1-6.4-5.5-6.4s-5.8,3.7-6.1,6.4h11.6Z"/>
      <path class="st3" d="M283.6,113.2v26.3c0,1.9,0,4.1.2,5.6h-3.6l-.2-3.8h0c-1.2,2.4-3.9,4.3-7.4,4.3-5.3,0-9.3-4.5-9.3-11.1,0-7.2,4.5-11.7,9.8-11.7s5.6,1.6,6.6,3.3h0v-13h4ZM279.6,132.3c0-.5,0-1.2-.2-1.7-.6-2.5-2.7-4.6-5.7-4.6s-6.5,3.6-6.5,8.4,2.2,8.1,6.4,8.1,5.1-1.8,5.8-4.7c.1-.5.2-1.1.2-1.7v-3.8Z"/>
      <path class="st3" d="M299.8,115.2c1.9-.3,4.4-.6,7.5-.6s6.7.9,8.5,2.5c1.7,1.4,2.7,3.6,2.7,6.3s-.8,4.9-2.3,6.5c-2.1,2.2-5.4,3.3-9.3,3.3s-2.2,0-3.1-.3v12.1h-3.9v-30ZM303.7,129.8c.9.2,1.9.3,3.2.3,4.7,0,7.6-2.3,7.6-6.5s-2.8-5.9-7.2-5.9-3,.1-3.7.3v11.8Z"/>
      <path class="st3" d="M322.9,130.2c0-2.6,0-4.8-.2-6.8h3.5v4.3h.3c1-2.9,3.4-4.8,6-4.8s.8,0,1.1.1v3.7c-.4,0-.8-.1-1.4-.1-2.8,0-4.8,2.1-5.3,5.1,0,.5-.2,1.2-.2,1.8v11.6h-3.9v-15Z"/>
      <path class="st3" d="M342.2,117.3c0,1.4-.9,2.4-2.5,2.4s-2.4-1.1-2.4-2.4,1-2.5,2.5-2.5,2.4,1.1,2.4,2.5ZM337.8,145.2v-21.8h4v21.8h-4Z"/>
      <path class="st3" d="M348.3,129.3c0-2.2,0-4.1-.2-5.9h3.5l.2,3.6h0c1.1-2.1,3.6-4.1,7.2-4.1s7.7,1.8,7.7,9.3v13h-4v-12.6c0-3.5-1.3-6.4-5-6.4s-4.6,1.8-5.3,4c-.2.5-.3,1.2-.3,1.8v13.1h-4v-15.9Z"/>
      <path class="st3" d="M377.9,117.1v6.3h5.7v3h-5.7v11.7c0,2.7.8,4.2,3,4.2s1.8-.1,2.3-.3l.2,3c-.8.3-2,.5-3.5.5s-3.3-.6-4.3-1.7c-1.1-1.2-1.5-3.1-1.5-5.7v-11.9h-3.4v-3h3.4v-5.2l3.9-1Z"/>
      <path class="st3" d="M401.6,118.2h-9.2v-3.3h22.5v3.3h-9.3v27h-4v-27Z"/>
      <path class="st3" d="M417.8,113.2h4v13.6h0c.6-1.1,1.6-2.1,2.8-2.8,1.2-.7,2.6-1.1,4-1.1,2.9,0,7.6,1.8,7.6,9.3v13h-4v-12.5c0-3.5-1.3-6.5-5-6.5s-4.6,1.8-5.3,4c-.2.5-.3,1.1-.3,1.9v13.1h-4v-31.9Z"/>
      <path class="st3" d="M442.7,130.2c0-2.6,0-4.8-.2-6.8h3.5v4.3h.3c1-2.9,3.4-4.8,6-4.8s.8,0,1.1.1v3.7c-.4,0-.8-.1-1.4-.1-2.8,0-4.8,2.1-5.3,5.1,0,.5-.2,1.2-.2,1.8v11.6h-3.9v-15Z"/>
      <path class="st3" d="M475.7,139.2c0,2.2,0,4.2.2,5.9h-3.5l-.2-3.6h0c-1,1.8-3.3,4-7.2,4s-7.5-1.9-7.5-9.5v-12.7h4v12.1c0,4.1,1.3,6.9,4.9,6.9s4.5-1.8,5.2-3.6c.2-.6.4-1.3.4-2v-13.4h4v15.8Z"/>
      <path class="st3" d="M63.8,190.4l-2.5,3.2h0c0,0,3.9-.5,3.9-.5v1.8l-3.9-.5h0c0,0,2.5,3.2,2.5,3.2l-1.6.9-1.6-3.6h0l-1.7,3.6-1.5-.9,2.5-3.2h0c0,0-3.8.4-3.8.4v-1.8l3.8.5h0c0,0-2.4-3.2-2.4-3.2l1.6-.9,1.6,3.6h0l1.6-3.6,1.6.9Z"/>
      <path class="st3" d="M80.2,206.7c-.8.4-2.5.8-4.6.8-4.9,0-8.6-3.1-8.6-8.8s3.7-9.2,9.1-9.2,3.5.5,4.1.8l-.5,1.8c-.9-.4-2.1-.7-3.5-.7-4.1,0-6.8,2.6-6.8,7.2s2.5,7,6.7,7,2.8-.3,3.7-.7l.5,1.8Z"/>
      <path class="st3" d="M97.7,199.6c-.1-2.4-.3-5.4-.3-7.5h0c-.6,2-1.3,4.2-2.2,6.6l-3.1,8.5h-1.7l-2.8-8.3c-.8-2.5-1.5-4.7-2-6.8h0c0,2.2-.2,5.1-.3,7.7l-.5,7.5h-2.1l1.2-17.4h2.9l3,8.4c.7,2.1,1.3,4.1,1.8,5.9h0c.4-1.8,1.1-3.7,1.8-5.9l3.1-8.4h2.9l1.1,17.4h-2.2l-.4-7.7Z"/>
      <path class="st3" d="M107.7,207.3v-7.4l-5.5-10h2.6l2.5,4.8c.7,1.3,1.2,2.4,1.7,3.6h0c.5-1.1,1.1-2.3,1.8-3.6l2.5-4.8h2.6l-5.8,10v7.4h-2.3Z"/>
      <path class="st3" d="M117.6,189.8h2.3v8.4h0c.5-.7.9-1.3,1.4-1.9l5.3-6.5h2.8l-6.3,7.4,6.8,10h-2.7l-5.7-8.6-1.7,1.9v6.7h-2.3v-17.4Z"/>
      <path class="st3" d="M149.3,206.7c-.8.4-2.5.8-4.6.8-4.9,0-8.6-3.1-8.6-8.8s3.7-9.2,9.1-9.2,3.5.5,4.1.8l-.5,1.8c-.9-.4-2.1-.7-3.5-.7-4.1,0-6.8,2.6-6.8,7.2s2.5,7,6.7,7,2.8-.3,3.7-.7l.5,1.8Z"/>
      <path class="st3" d="M163.1,200.9c0,4.6-3.2,6.7-6.2,6.7s-6-2.5-6-6.4,2.7-6.7,6.2-6.7,6,2.6,6,6.4ZM153.2,201c0,2.7,1.6,4.8,3.8,4.8s3.8-2,3.8-4.9-1.1-4.8-3.8-4.8-3.9,2.5-3.9,4.9Z"/>
      <path class="st3" d="M166,188.9h2.3v18.4h-2.3v-18.4Z"/>
      <path class="st3" d="M183.4,200.9c0,4.6-3.2,6.7-6.2,6.7s-6-2.5-6-6.4,2.7-6.7,6.2-6.7,6,2.6,6,6.4ZM173.5,201c0,2.7,1.6,4.8,3.8,4.8s3.8-2,3.8-4.9-1.1-4.8-3.8-4.8-3.9,2.5-3.9,4.9Z"/>
      <path class="st3" d="M186.3,198.7c0-1.5,0-2.7-.1-3.9h2v2.5h.2c.6-1.7,1.9-2.7,3.5-2.7s.4,0,.6,0v2.1c-.2,0-.5,0-.8,0-1.6,0-2.7,1.2-3.1,2.9,0,.3-.1.7-.1,1.1v6.7h-2.3v-8.6Z"/>
      <path class="st3" d="M200,204.5c1,.6,2.5,1.1,4,1.1,2.3,0,3.6-1.2,3.6-3s-.9-2.6-3.3-3.5c-2.8-1-4.6-2.5-4.6-4.9s2.3-4.7,5.6-4.7,3.1.4,3.9.9l-.6,1.8c-.6-.3-1.7-.8-3.3-.8-2.4,0-3.3,1.4-3.3,2.6s1.1,2.4,3.5,3.4c3,1.1,4.5,2.6,4.5,5.1s-2,5-6.1,5-3.5-.5-4.5-1.1l.6-1.9Z"/>
      <path class="st3" d="M213,198.8c0-1.6,0-2.9-.1-4.1h2v2.1h.2c.9-1.5,2.4-2.4,4.5-2.4,3,0,5.3,2.6,5.3,6.4s-2.7,6.7-5.7,6.7-3.1-.7-3.9-2h0v6.8h-2.3v-13.6ZM215.3,202.2c0,.3,0,.6.1.9.4,1.6,1.8,2.7,3.4,2.7,2.4,0,3.8-2,3.8-4.8s-1.3-4.7-3.7-4.7-3,1.1-3.4,2.8c0,.3-.2.6-.2.9v2.1Z"/>
      <path class="st3" d="M234.7,207.3l-.2-1.6h0c-.7,1-2,1.9-3.8,1.9-2.5,0-3.8-1.8-3.8-3.6,0-3,2.7-4.7,7.5-4.7v-.3c0-1-.3-2.9-2.8-2.9s-2.4.4-3.3.9l-.5-1.5c1-.7,2.5-1.1,4.1-1.1,3.8,0,4.8,2.6,4.8,5.1v4.7c0,1.1,0,2.1.2,3h-2.1ZM234.3,200.9c-2.5,0-5.3.4-5.3,2.8s1,2.2,2.1,2.2,2.7-1,3-2.1c0-.2.1-.5.1-.7v-2.2Z"/>
      <path class="st3" d="M249.1,206.8c-.6.3-1.9.7-3.6.7-3.8,0-6.2-2.6-6.2-6.4s2.6-6.7,6.7-6.7,2.5.3,3.2.6l-.5,1.8c-.5-.3-1.4-.6-2.6-.6-2.9,0-4.4,2.1-4.4,4.7s1.9,4.7,4.3,4.7,2.1-.3,2.8-.6l.4,1.7Z"/>
      <path class="st3" d="M252.9,201.4c0,3.1,2,4.3,4.3,4.3s2.6-.3,3.5-.6l.4,1.6c-.8.4-2.2.8-4.2.8-3.9,0-6.2-2.5-6.2-6.3s2.2-6.8,5.9-6.8,5.2,3.6,5.2,5.9,0,.8,0,1.1h-8.8ZM259.6,199.8c0-1.4-.6-3.7-3.2-3.7s-3.3,2.1-3.5,3.7h6.7Z"/>
      <path class="st3" d="M61.4,254.7h0l-2.9,1.6-.4-1.7,3.7-2h1.9v16.8h-2.2v-14.7Z"/>
      <path class="st3" d="M69.9,268c0-1,.6-1.6,1.6-1.6s1.5.7,1.5,1.6-.6,1.6-1.6,1.6-1.5-.7-1.5-1.6Z"/>
      <path class="st3" d="M81.4,252.2c1.4-.2,3-.4,4.8-.4,3.2,0,5.5.8,7.1,2.2,1.6,1.4,2.5,3.4,2.5,6.3s-.9,5.2-2.5,6.8c-1.6,1.6-4.3,2.5-7.7,2.5s-3,0-4.1-.2v-17.2ZM83.6,267.6c.6.1,1.4.1,2.3.1,4.8,0,7.4-2.7,7.4-7.4,0-4.1-2.3-6.7-7.1-6.7s-2,.1-2.6.2v13.8Z"/>
      <path class="st3" d="M99.9,263.5c0,3.1,2,4.3,4.3,4.3s2.6-.3,3.5-.6l.4,1.6c-.8.4-2.2.8-4.2.8-3.9,0-6.2-2.5-6.2-6.3s2.2-6.8,5.9-6.8,5.2,3.6,5.2,5.9,0,.8,0,1.1h-8.8ZM106.6,261.9c0-1.4-.6-3.7-3.2-3.7s-3.3,2.1-3.5,3.7h6.7Z"/>
      <path class="st3" d="M111.3,267.1c.7.4,1.9.9,3,.9,1.7,0,2.4-.8,2.4-1.9s-.6-1.7-2.3-2.3c-2.3-.8-3.3-2-3.3-3.5s1.6-3.7,4.3-3.7,2.4.4,3.1.8l-.6,1.7c-.5-.3-1.4-.7-2.6-.7s-2.1.8-2.1,1.7.8,1.5,2.4,2.1c2.2.8,3.3,1.9,3.3,3.8s-1.7,3.8-4.7,3.8-2.6-.3-3.5-.9l.6-1.7Z"/>
      <path class="st3" d="M124.4,253.3c0,.8-.5,1.4-1.4,1.4s-1.4-.6-1.4-1.4.6-1.4,1.4-1.4,1.4.6,1.4,1.4ZM121.9,269.4v-12.5h2.3v12.5h-2.3Z"/>
      <path class="st3" d="M138.7,256.9c0,.9-.1,1.9-.1,3.4v7.3c0,2.9-.6,4.6-1.8,5.7-1.2,1.1-3,1.5-4.6,1.5s-3.2-.4-4.2-1l.6-1.7c.8.5,2.1,1,3.7,1,2.3,0,4-1.2,4-4.4v-1.4h0c-.7,1.2-2,2.1-4,2.1-3.1,0-5.3-2.6-5.3-6.1s2.8-6.7,5.6-6.7,3.4,1.1,3.9,2.2h0v-1.9h2.1ZM136.3,261.8c0-.4,0-.7-.1-1-.4-1.3-1.5-2.4-3.2-2.4s-3.7,1.8-3.7,4.7,1.2,4.5,3.7,4.5,2.7-.9,3.2-2.3c.1-.4.2-.8.2-1.2v-2.3Z"/>
      <path class="st3" d="M142.2,260.3c0-1.3,0-2.4-.1-3.4h2v2.1h.2c.6-1.2,2.1-2.4,4.1-2.4s4.4,1,4.4,5.3v7.5h-2.3v-7.2c0-2-.8-3.7-2.9-3.7s-2.7,1.1-3.1,2.3c-.1.3-.2.7-.2,1.1v7.5h-2.3v-9.1Z"/>
      <path class="st3" d="M162.9,256.9l2.7,7.4c.3.8.6,1.8.8,2.6h0c.2-.8.5-1.7.8-2.6l2.5-7.3h2.4l-3.4,8.9c-1.6,4.3-2.7,6.5-4.3,7.8-1.1,1-2.2,1.4-2.8,1.5l-.6-1.9c.6-.2,1.3-.5,2-1.1.6-.5,1.4-1.4,1.9-2.5.1-.2.2-.4.2-.5s0-.3-.2-.6l-4.6-11.5h2.5Z"/>
      <path class="st3" d="M185.3,263c0,4.6-3.2,6.7-6.2,6.7s-6-2.5-6-6.4,2.7-6.7,6.2-6.7,6,2.6,6,6.4ZM175.4,263.2c0,2.7,1.6,4.8,3.8,4.8s3.8-2,3.8-4.9-1.1-4.8-3.8-4.8-3.9,2.5-3.9,4.9Z"/>
      <path class="st3" d="M198.7,266c0,1.3,0,2.4.1,3.4h-2v-2h-.2c-.6,1-1.9,2.3-4.1,2.3s-4.3-1.1-4.3-5.5v-7.3h2.3v6.9c0,2.4.7,4,2.8,4s2.6-1.1,3-2.1c.1-.3.2-.8.2-1.2v-7.7h2.3v9.1Z"/>
      <path class="st3" d="M202.5,260.8c0-1.5,0-2.7-.1-3.9h2v2.5h.2c.6-1.7,1.9-2.7,3.5-2.7s.4,0,.6,0v2.1c-.2,0-.5,0-.8,0-1.6,0-2.7,1.2-3.1,2.9,0,.3-.1.7-.1,1.1v6.7h-2.3v-8.6Z"/>
      <path class="st3" d="M223.3,269.4l-.2-1.6h0c-.7,1-2,1.9-3.8,1.9-2.5,0-3.8-1.8-3.8-3.6,0-3,2.7-4.7,7.5-4.7v-.3c0-1-.3-2.9-2.8-2.9s-2.4.4-3.3.9l-.5-1.5c1-.7,2.5-1.1,4.1-1.1,3.8,0,4.8,2.6,4.8,5.1v4.7c0,1.1,0,2.1.2,3h-2.1ZM223,263c-2.5,0-5.3.4-5.3,2.8s1,2.2,2.1,2.2,2.7-1,3-2.1c0-.2.1-.5.1-.7v-2.2Z"/>
      <path class="st3" d="M228.9,260.8c0-1.5,0-2.7-.1-3.9h2v2.5h.2c.6-1.7,1.9-2.7,3.5-2.7s.4,0,.6,0v2.1c-.2,0-.5,0-.8,0-1.6,0-2.7,1.2-3.1,2.9,0,.3-.1.7-.1,1.1v6.7h-2.3v-8.6Z"/>
      <path class="st3" d="M240.7,253.3v3.6h3.3v1.7h-3.3v6.8c0,1.6.4,2.4,1.7,2.4s1,0,1.3-.2v1.7c-.3.2-1,.3-1.9.3s-1.9-.3-2.5-1c-.6-.7-.9-1.8-.9-3.3v-6.8h-1.9v-1.7h1.9v-3l2.2-.6Z"/>
      <path class="st3" d="M247.7,256.9l1.7,6.4c.4,1.4.7,2.7.9,4h0c.3-1.3.7-2.6,1.1-4l2-6.4h1.9l1.9,6.3c.5,1.5.8,2.8,1.1,4.1h0c.2-1.3.5-2.6,1-4.1l1.8-6.3h2.3l-4,12.5h-2.1l-1.9-6c-.4-1.4-.8-2.6-1.1-4.1h0c-.3,1.5-.7,2.8-1.1,4.1l-2,6h-2.1l-3.8-12.5h2.3Z"/>
      <path class="st3" d="M276.9,263c0,4.6-3.2,6.7-6.2,6.7s-6-2.5-6-6.4,2.7-6.7,6.2-6.7,6,2.6,6,6.4ZM266.9,263.2c0,2.7,1.6,4.8,3.8,4.8s3.8-2,3.8-4.9-1.1-4.8-3.8-4.8-3.9,2.5-3.9,4.9Z"/>
      <path class="st3" d="M279.7,260.8c0-1.5,0-2.7-.1-3.9h2v2.5h.2c.6-1.7,1.9-2.7,3.5-2.7s.4,0,.6,0v2.1c-.2,0-.5,0-.8,0-1.6,0-2.7,1.2-3.1,2.9,0,.3-.1.7-.1,1.1v6.7h-2.3v-8.6Z"/>
      <path class="st3" d="M290.6,262.6h0c.3-.4.8-1,1.1-1.4l3.7-4.3h2.7l-4.8,5.1,5.5,7.4h-2.8l-4.3-6-1.2,1.3v4.7h-2.3v-18.4h2.3v11.6Z"/>
      <path class="st3" d="M317.3,263c0,4.6-3.2,6.7-6.2,6.7s-6-2.5-6-6.4,2.7-6.7,6.2-6.7,6,2.6,6,6.4ZM307.3,263.2c0,2.7,1.6,4.8,3.8,4.8s3.8-2,3.8-4.9-1.1-4.8-3.8-4.8-3.9,2.5-3.9,4.9Z"/>
      <path class="st3" d="M320.1,260.3c0-1.3,0-2.4-.1-3.4h2v2.1h.2c.6-1.2,2.1-2.4,4.1-2.4s4.4,1,4.4,5.3v7.5h-2.3v-7.2c0-2-.8-3.7-2.9-3.7s-2.7,1.1-3.1,2.3c-.1.3-.2.7-.2,1.1v7.5h-2.3v-9.1Z"/>
      <path class="st3" d="M342.7,253.3v3.6h3.3v1.7h-3.3v6.8c0,1.6.4,2.4,1.7,2.4s1,0,1.3-.2v1.7c-.3.2-1,.3-1.9.3s-1.9-.3-2.5-1c-.6-.7-.9-1.8-.9-3.3v-6.8h-1.9v-1.7h1.9v-3l2.2-.6Z"/>
      <path class="st3" d="M348.6,251h2.3v7.8h0c.4-.6.9-1.2,1.6-1.6.7-.4,1.5-.6,2.3-.6,1.7,0,4.4,1,4.4,5.4v7.5h-2.3v-7.2c0-2-.8-3.7-2.9-3.7s-2.6,1-3.1,2.3c-.1.3-.2.6-.2,1.1v7.6h-2.3v-18.4Z"/>
      <path class="st3" d="M364.2,263.5c0,3.1,2,4.3,4.3,4.3s2.6-.3,3.5-.6l.4,1.6c-.8.4-2.2.8-4.2.8-3.9,0-6.2-2.5-6.2-6.3s2.2-6.8,5.9-6.8,5.2,3.6,5.2,5.9,0,.8,0,1.1h-8.8ZM370.9,261.9c0-1.4-.6-3.7-3.2-3.7s-3.3,2.1-3.5,3.7h6.7Z"/>
      <path class="st3" d="M384.3,263.9l-1.8,5.5h-2.3l5.9-17.4h2.7l6,17.4h-2.4l-1.9-5.5h-6.2ZM390,262.1l-1.7-5c-.4-1.1-.6-2.2-.9-3.2h0c-.3,1-.5,2.1-.9,3.2l-1.7,5h5.3Z"/>
      <path class="st3" d="M397.3,252.2c1.1-.2,2.8-.4,4.3-.4,2.4,0,4,.4,5,1.4.9.8,1.4,2,1.4,3.3,0,2.3-1.4,3.8-3.3,4.5h0c1.3.5,2.1,1.8,2.6,3.6.6,2.4,1,4.1,1.3,4.8h-2.3c-.3-.5-.7-2-1.2-4.2-.5-2.4-1.4-3.3-3.5-3.4h-2.1v7.6h-2.3v-17.2ZM399.5,260.1h2.3c2.4,0,3.9-1.3,3.9-3.3s-1.6-3.2-4-3.3c-1.1,0-1.9.1-2.2.2v6.4Z"/>
      <path class="st3" d="M414.7,253.9h-5.3v-1.9h12.9v1.9h-5.3v15.5h-2.3v-15.5Z"/>
      <path class="st3" d="M428.2,269.4l-4.4-17.4h2.4l2.1,8.8c.5,2.2,1,4.3,1.3,6h0c.3-1.7.8-3.8,1.4-6.1l2.3-8.8h2.4l2.1,8.9c.5,2.1,1,4.1,1.2,6h0c.4-1.9.9-3.9,1.4-6l2.3-8.8h2.3l-4.9,17.4h-2.4l-2.2-9.1c-.5-2.2-.9-3.9-1.1-5.7h0c-.3,1.7-.7,3.4-1.3,5.7l-2.5,9.1h-2.4Z"/>
      <path class="st3" d="M462.1,260.5c0,6-3.6,9.2-8.1,9.2s-7.8-3.6-7.8-8.9,3.4-9.2,8.1-9.2,7.8,3.6,7.8,8.8ZM448.6,260.8c0,3.7,2,7.1,5.6,7.1s5.6-3.3,5.6-7.2-1.8-7.1-5.6-7.1-5.6,3.4-5.6,7.3Z"/>
      <path class="st3" d="M465,252.2c1.1-.2,2.8-.4,4.3-.4,2.4,0,4,.4,5,1.4.9.8,1.4,2,1.4,3.3,0,2.3-1.4,3.8-3.3,4.5h0c1.3.5,2.1,1.8,2.6,3.6.6,2.4,1,4.1,1.3,4.8h-2.3c-.3-.5-.7-2-1.2-4.2-.5-2.4-1.4-3.3-3.5-3.4h-2.1v7.6h-2.3v-17.2ZM467.3,260.1h2.3c2.4,0,3.9-1.3,3.9-3.3s-1.6-3.2-4-3.3c-1.1,0-1.9.1-2.2.2v6.4Z"/>
      <path class="st3" d="M479,251.9h2.3v8.4h0c.5-.7.9-1.3,1.4-1.9l5.3-6.5h2.8l-6.3,7.4,6.8,10h-2.7l-5.7-8.6-1.7,1.9v6.7h-2.3v-17.4Z"/>
      <path class="st3" d="M500.7,251.9v7.3h8.4v-7.3h2.3v17.4h-2.3v-8.2h-8.4v8.2h-2.3v-17.4h2.3Z"/>
      <path class="st3" d="M524.4,261.2h-6.8v6.3h7.6v1.9h-9.8v-17.4h9.4v1.9h-7.2v5.5h6.8v1.9Z"/>
      <path class="st3" d="M528.1,252.2c1.1-.2,2.8-.4,4.3-.4,2.4,0,4,.4,5,1.4.9.8,1.4,2,1.4,3.3,0,2.3-1.4,3.8-3.3,4.5h0c1.3.5,2.1,1.8,2.6,3.6.6,2.4,1,4.1,1.3,4.8h-2.3c-.3-.5-.7-2-1.2-4.2-.5-2.4-1.4-3.3-3.5-3.4h-2.1v7.6h-2.3v-17.2ZM530.3,260.1h2.3c2.4,0,3.9-1.3,3.9-3.3s-1.6-3.2-4-3.3c-1.1,0-1.9.1-2.2.2v6.4Z"/>
      <path class="st3" d="M551,261.2h-6.8v6.3h7.6v1.9h-9.8v-17.4h9.4v1.9h-7.2v5.5h6.8v1.9Z"/>
      <path class="st3" d="M560.1,251h2.3v18.4h-2.3v-18.4Z"/>
      <path class="st3" d="M573.2,269.4l-.2-1.6h0c-.7,1-2,1.9-3.8,1.9-2.5,0-3.8-1.8-3.8-3.6,0-3,2.7-4.7,7.5-4.7v-.3c0-1-.3-2.9-2.8-2.9s-2.4.4-3.3.9l-.5-1.5c1-.7,2.5-1.1,4.1-1.1,3.8,0,4.8,2.6,4.8,5.1v4.7c0,1.1,0,2.1.2,3h-2.1ZM572.8,263c-2.5,0-5.3.4-5.3,2.8s1,2.2,2.1,2.2,2.7-1,3-2.1c0-.2.1-.5.1-.7v-2.2Z"/>
      <path class="st3" d="M579.3,256.9l2.7,7.4c.3.8.6,1.8.8,2.6h0c.2-.8.5-1.7.8-2.6l2.5-7.3h2.4l-3.4,8.9c-1.6,4.3-2.7,6.5-4.3,7.8-1.1,1-2.2,1.4-2.8,1.5l-.6-1.9c.6-.2,1.3-.5,2-1.1.6-.5,1.4-1.4,1.9-2.5.1-.2.2-.4.2-.5s0-.3-.2-.6l-4.6-11.5h2.5Z"/>
      <path class="st3" d="M591.7,263.5c0,3.1,2,4.3,4.3,4.3s2.6-.3,3.5-.6l.4,1.6c-.8.4-2.2.8-4.2.8-3.9,0-6.2-2.5-6.2-6.3s2.2-6.8,5.9-6.8,5.2,3.6,5.2,5.9,0,.8,0,1.1h-8.8ZM598.4,261.9c0-1.4-.6-3.7-3.2-3.7s-3.3,2.1-3.5,3.7h6.7Z"/>
      <path class="st3" d="M603.4,260.8c0-1.5,0-2.7-.1-3.9h2v2.5h.2c.6-1.7,1.9-2.7,3.5-2.7s.4,0,.6,0v2.1c-.2,0-.5,0-.8,0-1.6,0-2.7,1.2-3.1,2.9,0,.3-.1.7-.1,1.1v6.7h-2.3v-8.6Z"/>
      <path class="st3" d="M56.5,300.4v-1.4l1.8-1.7c4.3-4.1,6.2-6.3,6.3-8.8,0-1.7-.8-3.3-3.3-3.3s-2.8.8-3.6,1.4l-.7-1.6c1.2-1,2.8-1.7,4.8-1.7,3.6,0,5.1,2.5,5.1,4.9s-2.3,5.6-5.8,9l-1.3,1.2h0c0,0,7.6,0,7.6,0v1.9h-10.7Z"/>
      <path class="st3" d="M69.9,299.1c0-1,.6-1.6,1.6-1.6s1.5.7,1.5,1.6-.6,1.6-1.6,1.6-1.5-.7-1.5-1.6Z"/>
      <path class="st3" d="M81.1,297.7c1,.6,2.5,1.1,4,1.1,2.3,0,3.6-1.2,3.6-3s-.9-2.6-3.3-3.5c-2.8-1-4.6-2.5-4.6-4.9s2.3-4.7,5.6-4.7,3.1.4,3.9.9l-.6,1.8c-.6-.3-1.7-.8-3.3-.8-2.4,0-3.3,1.4-3.3,2.6s1.1,2.4,3.5,3.4c3,1.1,4.5,2.6,4.5,5.1s-2,5-6.1,5-3.5-.5-4.5-1.1l.6-1.9Z"/>
      <path class="st3" d="M101.1,300.4l-.2-1.6h0c-.7,1-2,1.9-3.8,1.9-2.5,0-3.8-1.8-3.8-3.6,0-3,2.7-4.7,7.5-4.7v-.3c0-1-.3-2.9-2.8-2.9s-2.4.4-3.3.9l-.5-1.5c1-.7,2.5-1.1,4.1-1.1,3.8,0,4.8,2.6,4.8,5.1v4.7c0,1.1,0,2.1.2,3h-2.1ZM100.7,294c-2.5,0-5.3.4-5.3,2.8s1,2.2,2.1,2.2,2.7-1,3-2.1c0-.2.1-.5.1-.7v-2.2Z"/>
      <path class="st3" d="M107.3,287.9l2.5,7c.4,1.1.8,2.2,1,3.2h0c.3-1,.6-2.1,1.1-3.2l2.4-7h2.4l-4.9,12.5h-2.2l-4.8-12.5h2.4Z"/>
      <path class="st3" d="M119.9,294.6c0,3.1,2,4.3,4.3,4.3s2.6-.3,3.5-.6l.4,1.6c-.8.4-2.2.8-4.2.8-3.9,0-6.2-2.5-6.2-6.3s2.2-6.8,5.9-6.8,5.2,3.6,5.2,5.9,0,.8,0,1.1h-8.8ZM126.5,293c0-1.4-.6-3.7-3.2-3.7s-3.3,2.1-3.5,3.7h6.7Z"/>
      <path class="st3" d="M144,300.4l-.2-1.6h0c-.7,1-2,1.9-3.8,1.9-2.5,0-3.8-1.8-3.8-3.6,0-3,2.7-4.7,7.5-4.7v-.3c0-1-.3-2.9-2.8-2.9s-2.4.4-3.3.9l-.5-1.5c1-.7,2.5-1.1,4.1-1.1,3.8,0,4.8,2.6,4.8,5.1v4.7c0,1.1,0,2.1.2,3h-2.1ZM143.6,294c-2.5,0-5.3.4-5.3,2.8s1,2.2,2.1,2.2,2.7-1,3-2.1c0-.2.1-.5.1-.7v-2.2Z"/>
      <path class="st3" d="M149.2,298.1c.7.4,1.9.9,3,.9,1.7,0,2.4-.8,2.4-1.9s-.6-1.7-2.3-2.3c-2.3-.8-3.3-2-3.3-3.5s1.6-3.7,4.3-3.7,2.4.4,3.1.8l-.6,1.7c-.5-.3-1.4-.7-2.6-.7s-2.1.8-2.1,1.7.8,1.5,2.4,2.1c2.2.8,3.3,1.9,3.3,3.8s-1.7,3.8-4.7,3.8-2.6-.3-3.5-.9l.6-1.7Z"/>
      <path class="st3" d="M165.3,283.2c1.1-.2,2.5-.3,4.3-.3s3.9.5,4.9,1.4c1,.8,1.5,2.1,1.5,3.6s-.5,2.8-1.3,3.7c-1.2,1.3-3.1,1.9-5.3,1.9s-1.3,0-1.8-.2v7h-2.3v-17.2ZM167.6,291.6c.5.1,1.1.2,1.9.2,2.7,0,4.4-1.3,4.4-3.7s-1.6-3.4-4.1-3.4-1.7,0-2.1.2v6.8Z"/>
      <path class="st3" d="M179.1,283.2c1.4-.2,3-.4,4.8-.4,3.2,0,5.5.8,7.1,2.2,1.6,1.4,2.5,3.4,2.5,6.3s-.9,5.2-2.5,6.8c-1.6,1.6-4.3,2.5-7.7,2.5s-3,0-4.1-.2v-17.2ZM181.3,298.7c.6.1,1.4.1,2.3.1,4.8,0,7.4-2.7,7.4-7.4,0-4.1-2.3-6.7-7.1-6.7s-2,.1-2.6.2v13.8Z"/>
      <path class="st3" d="M196.3,283h9.4v1.9h-7.1v5.8h6.6v1.9h-6.6v7.9h-2.3v-17.4Z"/>
      <path class="st3" d="M225.7,294.1c0,4.6-3.2,6.7-6.2,6.7s-6-2.5-6-6.4,2.7-6.7,6.2-6.7,6,2.6,6,6.4ZM215.7,294.2c0,2.7,1.6,4.8,3.8,4.8s3.8-2,3.8-4.9-1.1-4.8-3.8-4.8-3.9,2.5-3.9,4.9Z"/>
      <path class="st3" d="M228.5,291.8c0-1.5,0-2.7-.1-3.9h2v2.5h.2c.6-1.7,1.9-2.7,3.5-2.7s.4,0,.6,0v2.1c-.2,0-.5,0-.8,0-1.6,0-2.7,1.2-3.1,2.9,0,.3-.1.7-.1,1.1v6.7h-2.3v-8.6Z"/>
      <path class="st3" d="M251.6,292.3h-6.8v6.3h7.6v1.9h-9.8v-17.4h9.4v1.9h-7.2v5.5h6.8v1.9Z"/>
      <path class="st3" d="M256.3,287.9l1.8,2.7c.5.7.9,1.3,1.3,2h0c.4-.8.8-1.4,1.2-2.1l1.8-2.7h2.5l-4.3,6.1,4.4,6.5h-2.6l-1.8-2.8c-.5-.7-.9-1.4-1.3-2.2h0c-.4.8-.9,1.4-1.3,2.2l-1.8,2.8h-2.5l4.5-6.4-4.2-6.1h2.5Z"/>
      <path class="st3" d="M267.2,292c0-1.6,0-2.9-.1-4.1h2v2.1h.2c.9-1.5,2.4-2.4,4.5-2.4,3,0,5.3,2.6,5.3,6.4s-2.7,6.7-5.7,6.7-3.1-.7-3.9-2h0v6.8h-2.3v-13.6ZM269.4,295.3c0,.3,0,.6.1.9.4,1.6,1.8,2.7,3.4,2.7,2.4,0,3.8-2,3.8-4.8s-1.3-4.7-3.7-4.7-3,1.1-3.4,2.8c0,.3-.2.6-.2.9v2.1Z"/>
      <path class="st3" d="M293.3,294.1c0,4.6-3.2,6.7-6.2,6.7s-6-2.5-6-6.4,2.7-6.7,6.2-6.7,6,2.6,6,6.4ZM283.3,294.2c0,2.7,1.6,4.8,3.8,4.8s3.8-2,3.8-4.9-1.1-4.8-3.8-4.8-3.9,2.5-3.9,4.9Z"/>
      <path class="st3" d="M296.1,291.8c0-1.5,0-2.7-.1-3.9h2v2.5h.2c.6-1.7,1.9-2.7,3.5-2.7s.4,0,.6,0v2.1c-.2,0-.5,0-.8,0-1.6,0-2.7,1.2-3.1,2.9,0,.3-.1.7-.1,1.1v6.7h-2.3v-8.6Z"/>
      <path class="st3" d="M308,284.3v3.6h3.3v1.7h-3.3v6.8c0,1.6.4,2.4,1.7,2.4s1,0,1.3-.2v1.7c-.3.2-1,.3-1.9.3s-1.9-.3-2.5-1c-.6-.7-.9-1.8-.9-3.3v-6.8h-1.9v-1.7h1.9v-3l2.2-.6Z"/>
      <path class="st3" d="M326.2,300.4l-.2-1.6h0c-.7,1-2,1.9-3.8,1.9-2.5,0-3.8-1.8-3.8-3.6,0-3,2.7-4.7,7.5-4.7v-.3c0-1-.3-2.9-2.8-2.9s-2.4.4-3.3.9l-.5-1.5c1-.7,2.5-1.1,4.1-1.1,3.8,0,4.8,2.6,4.8,5.1v4.7c0,1.1,0,2.1.2,3h-2.1ZM325.9,294c-2.5,0-5.3.4-5.3,2.8s1,2.2,2.1,2.2,2.7-1,3-2.1c0-.2.1-.5.1-.7v-2.2Z"/>
      <path class="st3" d="M331.4,298.1c.7.4,1.9.9,3,.9,1.7,0,2.4-.8,2.4-1.9s-.6-1.7-2.3-2.3c-2.3-.8-3.3-2-3.3-3.5s1.6-3.7,4.3-3.7,2.4.4,3.1.8l-.6,1.7c-.5-.3-1.4-.7-2.6-.7s-2.1.8-2.1,1.7.8,1.5,2.4,2.1c2.2.8,3.3,1.9,3.3,3.8s-1.7,3.8-4.7,3.8-2.6-.3-3.5-.9l.6-1.7Z"/>
      <path class="st3" d="M351.1,283h2.3v11.7c0,4.6-2.3,6.1-5.3,6.1s-1.8-.2-2.4-.4l.3-1.8c.5.2,1.1.3,1.9.3,2,0,3.2-.9,3.2-4.3v-11.5Z"/>
      <path class="st3" d="M357.1,283.2c1.1-.2,2.5-.3,4.3-.3s3.9.5,4.9,1.4c1,.8,1.5,2.1,1.5,3.6s-.5,2.8-1.3,3.7c-1.2,1.3-3.1,1.9-5.3,1.9s-1.3,0-1.8-.2v7h-2.3v-17.2ZM359.4,291.6c.5.1,1.1.2,1.9.2,2.7,0,4.4-1.3,4.4-3.7s-1.6-3.4-4.1-3.4-1.7,0-2.1.2v6.8Z"/>
      <path class="st3" d="M384.2,299.7c-1,.4-3,1-5.4,1s-4.8-.7-6.5-2.3c-1.5-1.4-2.4-3.8-2.4-6.5,0-5.2,3.6-9,9.4-9s3.6.4,4.3.8l-.5,1.8c-.9-.4-2.1-.8-3.9-.8-4.2,0-7,2.6-7,7s2.7,7,6.7,7,2.5-.2,3-.5v-5.2h-3.5v-1.8h5.7v8.4Z"/>
      <path class="st3" d="M60.6,378.1h-5.3v-1.9h12.9v1.9h-5.3v15.5h-2.3v-15.5Z"/>
      <path class="st3" d="M72.4,376.2v17.4h-2.3v-17.4h2.3Z"/>
      <path class="st3" d="M76.3,376.4c1.1-.2,2.5-.3,4.3-.3s3.9.5,4.9,1.4c1,.8,1.5,2.1,1.5,3.6s-.5,2.8-1.3,3.7c-1.2,1.3-3.1,1.9-5.3,1.9s-1.3,0-1.8-.2v7h-2.3v-17.2ZM78.6,384.8c.5.1,1.1.2,1.9.2,2.7,0,4.4-1.3,4.4-3.7s-1.6-3.4-4.1-3.4-1.7,0-2.1.2v6.8Z"/>
      <path class="st3" d="M89.8,390.9c1,.6,2.5,1.1,4,1.1,2.3,0,3.6-1.2,3.6-3s-.9-2.6-3.3-3.5c-2.8-1-4.6-2.5-4.6-4.9s2.3-4.7,5.6-4.7,3.1.4,3.9.9l-.6,1.8c-.6-.3-1.7-.8-3.3-.8-2.4,0-3.3,1.4-3.3,2.6s1.1,2.4,3.5,3.4c3,1.1,4.5,2.6,4.5,5.1s-2,5-6.1,5-3.5-.5-4.5-1.1l.6-1.9Z"/>
      <path class="st3" d="M56.2,417.9c0-1.5,1.2-2.7,2.7-2.7s2.7,1.2,2.7,2.7-1.2,2.7-2.7,2.7-2.7-1.2-2.7-2.7Z"/>
      <path class="st3" d="M70,407.2h2.3v8.4h0c.5-.7.9-1.3,1.4-1.9l5.3-6.5h2.8l-6.3,7.4,6.8,10h-2.7l-5.7-8.6-1.7,1.9v6.7h-2.3v-17.4Z"/>
      <path class="st3" d="M85.3,418.8c0,3.1,2,4.3,4.3,4.3s2.6-.3,3.5-.6l.4,1.6c-.8.4-2.2.8-4.2.8-3.9,0-6.2-2.5-6.2-6.3s2.2-6.8,5.9-6.8,5.2,3.6,5.2,5.9,0,.8,0,1.1h-8.8ZM91.9,417.2c0-1.4-.6-3.7-3.2-3.7s-3.3,2.1-3.5,3.7h6.7Z"/>
      <path class="st3" d="M98.2,418.8c0,3.1,2,4.3,4.3,4.3s2.6-.3,3.5-.6l.4,1.6c-.8.4-2.2.8-4.2.8-3.9,0-6.2-2.5-6.2-6.3s2.2-6.8,5.9-6.8,5.2,3.6,5.2,5.9,0,.8,0,1.1h-8.8ZM104.9,417.2c0-1.4-.6-3.7-3.2-3.7s-3.3,2.1-3.5,3.7h6.7Z"/>
      <path class="st3" d="M109.9,416.2c0-1.6,0-2.9-.1-4.1h2v2.1h.2c.9-1.5,2.4-2.4,4.5-2.4,3,0,5.3,2.6,5.3,6.4s-2.7,6.7-5.7,6.7-3.1-.7-3.9-2h0v6.8h-2.3v-13.6ZM112.2,419.5c0,.3,0,.6.1.9.4,1.6,1.8,2.7,3.4,2.7,2.4,0,3.8-2,3.8-4.8s-1.3-4.7-3.7-4.7-3,1.1-3.4,2.8c0,.3-.2.6-.2.9v2.1Z"/>
      <path class="st3" d="M132.7,408.6c0,.8-.5,1.4-1.4,1.4s-1.4-.6-1.4-1.4.6-1.4,1.4-1.4,1.4.6,1.4,1.4ZM130.1,424.6v-12.5h2.3v12.5h-2.3Z"/>
      <path class="st3" d="M136.2,415.5c0-1.3,0-2.4-.1-3.4h2v2h.2c.7-1.2,1.9-2.3,3.9-2.3s3,1,3.5,2.5h0c.4-.7.9-1.2,1.4-1.6.8-.6,1.6-.9,2.8-.9s4.1,1.1,4.1,5.4v7.4h-2.2v-7.1c0-2.4-.9-3.9-2.7-3.9s-2.3,1-2.7,2.1c-.1.3-.2.7-.2,1.1v7.7h-2.2v-7.5c0-2-.9-3.4-2.6-3.4s-2.5,1.1-2.8,2.3c-.1.3-.2.7-.2,1.1v7.6h-2.2v-9.1Z"/>
      <path class="st3" d="M157.8,416.2c0-1.6,0-2.9-.1-4.1h2v2.1h.2c.9-1.5,2.4-2.4,4.5-2.4,3,0,5.3,2.6,5.3,6.4s-2.7,6.7-5.7,6.7-3.1-.7-3.9-2h0v6.8h-2.3v-13.6ZM160,419.5c0,.3,0,.6.1.9.4,1.6,1.8,2.7,3.4,2.7,2.4,0,3.8-2,3.8-4.8s-1.3-4.7-3.7-4.7-3,1.1-3.4,2.8c0,.3-.2.6-.2.9v2.1Z"/>
      <path class="st3" d="M183.8,418.3c0,4.6-3.2,6.7-6.2,6.7s-6-2.5-6-6.4,2.7-6.7,6.2-6.7,6,2.6,6,6.4ZM173.9,418.4c0,2.7,1.6,4.8,3.8,4.8s3.8-2,3.8-4.9-1.1-4.8-3.8-4.8-3.9,2.5-3.9,4.9Z"/>
      <path class="st3" d="M186.7,416c0-1.5,0-2.7-.1-3.9h2v2.5h.2c.6-1.7,1.9-2.7,3.5-2.7s.4,0,.6,0v2.1c-.2,0-.5,0-.8,0-1.6,0-2.7,1.2-3.1,2.9,0,.3-.1.7-.1,1.1v6.7h-2.3v-8.6Z"/>
      <path class="st3" d="M198.5,408.5v3.6h3.3v1.7h-3.3v6.8c0,1.6.4,2.4,1.7,2.4s1,0,1.3-.2v1.7c-.3.2-1,.3-1.9.3s-1.9-.3-2.5-1c-.6-.7-.9-1.8-.9-3.3v-6.8h-1.9v-1.7h1.9v-3l2.2-.6Z"/>
      <path class="st3" d="M211.3,424.6l-.2-1.6h0c-.7,1-2,1.9-3.8,1.9-2.5,0-3.8-1.8-3.8-3.6,0-3,2.7-4.7,7.5-4.7v-.3c0-1-.3-2.9-2.8-2.9s-2.4.4-3.3.9l-.5-1.5c1-.7,2.5-1.1,4.1-1.1,3.8,0,4.8,2.6,4.8,5.1v4.7c0,1.1,0,2.1.2,3h-2.1ZM210.9,418.3c-2.5,0-5.3.4-5.3,2.8s1,2.2,2.1,2.2,2.7-1,3-2.1c0-.2.1-.5.1-.7v-2.2Z"/>
      <path class="st3" d="M216.8,415.5c0-1.3,0-2.4-.1-3.4h2v2.1h.2c.6-1.2,2.1-2.4,4.1-2.4s4.4,1,4.4,5.3v7.5h-2.3v-7.2c0-2-.8-3.7-2.9-3.7s-2.7,1.1-3.1,2.3c-.1.3-.2.7-.2,1.1v7.5h-2.3v-9.1Z"/>
      <path class="st3" d="M233.8,408.5v3.6h3.3v1.7h-3.3v6.8c0,1.6.4,2.4,1.7,2.4s1,0,1.3-.2v1.7c-.3.2-1,.3-1.9.3s-1.9-.3-2.5-1c-.6-.7-.9-1.8-.9-3.3v-6.8h-1.9v-1.7h1.9v-3l2.2-.6Z"/>
      <path class="st3" d="M247.9,408.5v3.6h3.3v1.7h-3.3v6.8c0,1.6.4,2.4,1.7,2.4s1,0,1.3-.2v1.7c-.3.2-1,.3-1.9.3s-1.9-.3-2.5-1c-.6-.7-.9-1.8-.9-3.3v-6.8h-1.9v-1.7h1.9v-3l2.2-.6Z"/>
      <path class="st3" d="M254.8,418.8c0,3.1,2,4.3,4.3,4.3s2.6-.3,3.5-.6l.4,1.6c-.8.4-2.2.8-4.2.8-3.9,0-6.2-2.5-6.2-6.3s2.2-6.8,5.9-6.8,5.2,3.6,5.2,5.9,0,.8,0,1.1h-8.8ZM261.5,417.2c0-1.4-.6-3.7-3.2-3.7s-3.3,2.1-3.5,3.7h6.7Z"/>
      <path class="st3" d="M267.5,412.1l1.8,2.7c.5.7.9,1.3,1.3,2h0c.4-.8.8-1.4,1.2-2.1l1.8-2.7h2.5l-4.3,6.1,4.4,6.5h-2.6l-1.8-2.8c-.5-.7-.9-1.4-1.3-2.2h0c-.4.8-.9,1.4-1.3,2.2l-1.8,2.8h-2.5l4.5-6.4-4.2-6.1h2.5Z"/>
      <path class="st3" d="M281.5,408.5v3.6h3.3v1.7h-3.3v6.8c0,1.6.4,2.4,1.7,2.4s1,0,1.3-.2v1.7c-.3.2-1,.3-1.9.3s-1.9-.3-2.5-1c-.6-.7-.9-1.8-.9-3.3v-6.8h-1.9v-1.7h1.9v-3l2.2-.6Z"/>
      <path class="st3" d="M285.4,425.7l7.2-18.8h1.8l-7.2,18.8h-1.7Z"/>
      <path class="st3" d="M298.7,408.6c0,.8-.5,1.4-1.4,1.4s-1.4-.6-1.4-1.4.6-1.4,1.4-1.4,1.4.6,1.4,1.4ZM296.2,424.6v-12.5h2.3v12.5h-2.3Z"/>
      <path class="st3" d="M302.2,415.5c0-1.3,0-2.4-.1-3.4h2v2h.2c.7-1.2,1.9-2.3,3.9-2.3s3,1,3.5,2.5h0c.4-.7.9-1.2,1.4-1.6.8-.6,1.6-.9,2.8-.9s4.1,1.1,4.1,5.4v7.4h-2.2v-7.1c0-2.4-.9-3.9-2.7-3.9s-2.3,1-2.7,2.1c-.1.3-.2.7-.2,1.1v7.7h-2.2v-7.5c0-2-.9-3.4-2.6-3.4s-2.5,1.1-2.8,2.3c-.1.3-.2.7-.2,1.1v7.6h-2.2v-9.1Z"/>
      <path class="st3" d="M330.7,424.6l-.2-1.6h0c-.7,1-2,1.9-3.8,1.9-2.5,0-3.8-1.8-3.8-3.6,0-3,2.7-4.7,7.5-4.7v-.3c0-1-.3-2.9-2.8-2.9s-2.4.4-3.3.9l-.5-1.5c1-.7,2.5-1.1,4.1-1.1,3.8,0,4.8,2.6,4.8,5.1v4.7c0,1.1,0,2.1.2,3h-2.1ZM330.4,418.3c-2.5,0-5.3.4-5.3,2.8s1,2.2,2.1,2.2,2.7-1,3-2.1c0-.2.1-.5.1-.7v-2.2Z"/>
      <path class="st3" d="M347.1,412.1c0,.9-.1,1.9-.1,3.4v7.3c0,2.9-.6,4.6-1.8,5.7-1.2,1.1-3,1.5-4.6,1.5s-3.2-.4-4.2-1l.6-1.7c.8.5,2.1,1,3.7,1,2.3,0,4-1.2,4-4.4v-1.4h0c-.7,1.2-2,2.1-4,2.1-3.1,0-5.3-2.6-5.3-6.1s2.8-6.7,5.6-6.7,3.4,1.1,3.9,2.2h0v-1.9h2.1ZM344.7,417.1c0-.4,0-.7-.1-1-.4-1.3-1.5-2.4-3.2-2.4s-3.7,1.8-3.7,4.7,1.2,4.5,3.7,4.5,2.7-.9,3.2-2.3c.1-.4.2-.8.2-1.2v-2.3Z"/>
      <path class="st3" d="M352,418.8c0,3.1,2,4.3,4.3,4.3s2.6-.3,3.5-.6l.4,1.6c-.8.4-2.2.8-4.2.8-3.9,0-6.2-2.5-6.2-6.3s2.2-6.8,5.9-6.8,5.2,3.6,5.2,5.9,0,.8,0,1.1h-8.8ZM358.7,417.2c0-1.4-.6-3.7-3.2-3.7s-3.3,2.1-3.5,3.7h6.7Z"/>
      <path class="st3" d="M363.4,422.3c.7.4,1.9.9,3,.9,1.7,0,2.4-.8,2.4-1.9s-.6-1.7-2.3-2.3c-2.3-.8-3.3-2-3.3-3.5s1.6-3.7,4.3-3.7,2.4.4,3.1.8l-.6,1.7c-.5-.3-1.4-.7-2.6-.7s-2.1.8-2.1,1.7.8,1.5,2.4,2.1c2.2.8,3.3,1.9,3.3,3.8s-1.7,3.8-4.7,3.8-2.6-.3-3.5-.9l.6-1.7Z"/>
      <path class="st3" d="M378.7,424.6v-1.4l1.8-1.7c4.3-4.1,6.2-6.3,6.3-8.8,0-1.7-.8-3.3-3.3-3.3s-2.8.8-3.6,1.4l-.7-1.6c1.2-1,2.8-1.7,4.8-1.7,3.6,0,5.1,2.5,5.1,4.9s-2.3,5.6-5.8,9l-1.3,1.2h0c0,0,7.6,0,7.6,0v1.9h-10.7Z"/>
      <path class="st3" d="M400.7,408.6c0,.8-.5,1.4-1.4,1.4s-1.4-.6-1.4-1.4.6-1.4,1.4-1.4,1.4.6,1.4,1.4ZM398.2,424.6v-12.5h2.3v12.5h-2.3Z"/>
      <path class="st3" d="M404.3,415.5c0-1.3,0-2.4-.1-3.4h2v2.1h.2c.6-1.2,2.1-2.4,4.1-2.4s4.4,1,4.4,5.3v7.5h-2.3v-7.2c0-2-.8-3.7-2.9-3.7s-2.7,1.1-3.1,2.3c-.1.3-.2.7-.2,1.1v7.5h-2.3v-9.1Z"/>
      <path class="st3" d="M427.6,424.2c-.6.3-1.9.7-3.6.7-3.8,0-6.2-2.6-6.2-6.4s2.6-6.7,6.7-6.7,2.5.3,3.2.6l-.5,1.8c-.5-.3-1.4-.6-2.6-.6-2.9,0-4.4,2.1-4.4,4.7s1.9,4.7,4.3,4.7,2.1-.3,2.8-.6l.4,1.7Z"/>
      <path class="st3" d="M430.2,406.3h2.3v7.8h0c.4-.6.9-1.2,1.6-1.6.7-.4,1.5-.6,2.3-.6,1.7,0,4.4,1,4.4,5.4v7.5h-2.3v-7.2c0-2-.8-3.7-2.9-3.7s-2.6,1-3.1,2.3c-.1.3-.2.6-.2,1.1v7.6h-2.3v-18.4Z"/>
      <path class="st3" d="M445.8,418.8c0,3.1,2,4.3,4.3,4.3s2.6-.3,3.5-.6l.4,1.6c-.8.4-2.2.8-4.2.8-3.9,0-6.2-2.5-6.2-6.3s2.2-6.8,5.9-6.8,5.2,3.6,5.2,5.9,0,.8,0,1.1h-8.8ZM452.5,417.2c0-1.4-.6-3.7-3.2-3.7s-3.3,2.1-3.5,3.7h6.7Z"/>
      <path class="st3" d="M457.2,422.3c.7.4,1.9.9,3,.9,1.7,0,2.4-.8,2.4-1.9s-.6-1.7-2.3-2.3c-2.3-.8-3.3-2-3.3-3.5s1.6-3.7,4.3-3.7,2.4.4,3.1.8l-.6,1.7c-.5-.3-1.4-.7-2.6-.7s-2.1.8-2.1,1.7.8,1.5,2.4,2.1c2.2.8,3.3,1.9,3.3,3.8s-1.7,3.8-4.7,3.8-2.6-.3-3.5-.9l.6-1.7Z"/>
      <path class="st3" d="M473.5,424.6v-10.8h-1.8v-1.7h1.8v-.6c0-1.8.4-3.4,1.4-4.4.9-.8,2-1.2,3.1-1.2s1.5.2,1.9.4l-.3,1.8c-.3-.2-.8-.3-1.4-.3-1.9,0-2.4,1.7-2.4,3.6v.7h3v1.7h-3v10.8h-2.3Z"/>
      <path class="st3" d="M480.8,416c0-1.5,0-2.7-.1-3.9h2v2.5h.2c.6-1.7,1.9-2.7,3.5-2.7s.4,0,.6,0v2.1c-.2,0-.5,0-.8,0-1.6,0-2.7,1.2-3.1,2.9,0,.3-.1.7-.1,1.1v6.7h-2.3v-8.6Z"/>
      <path class="st3" d="M500.4,418.3c0,4.6-3.2,6.7-6.2,6.7s-6-2.5-6-6.4,2.7-6.7,6.2-6.7,6,2.6,6,6.4ZM490.4,418.4c0,2.7,1.6,4.8,3.8,4.8s3.8-2,3.8-4.9-1.1-4.8-3.8-4.8-3.9,2.5-3.9,4.9Z"/>
      <path class="st3" d="M503.2,415.5c0-1.3,0-2.4-.1-3.4h2v2h.2c.7-1.2,1.9-2.3,3.9-2.3s3,1,3.5,2.5h0c.4-.7.9-1.2,1.4-1.6.8-.6,1.6-.9,2.8-.9s4.1,1.1,4.1,5.4v7.4h-2.2v-7.1c0-2.4-.9-3.9-2.7-3.9s-2.3,1-2.7,2.1c-.1.3-.2.7-.2,1.1v7.7h-2.2v-7.5c0-2-.9-3.4-2.6-3.4s-2.5,1.1-2.8,2.3c-.1.3-.2.7-.2,1.1v7.6h-2.2v-9.1Z"/>
      <path class="st3" d="M533,408.5v3.6h3.3v1.7h-3.3v6.8c0,1.6.4,2.4,1.7,2.4s1,0,1.3-.2v1.7c-.3.2-1,.3-1.9.3s-1.9-.3-2.5-1c-.6-.7-.9-1.8-.9-3.3v-6.8h-1.9v-1.7h1.9v-3l2.2-.6Z"/>
      <path class="st3" d="M538.9,406.3h2.3v7.8h0c.4-.6.9-1.2,1.6-1.6.7-.4,1.5-.6,2.3-.6,1.7,0,4.4,1,4.4,5.4v7.5h-2.3v-7.2c0-2-.8-3.7-2.9-3.7s-2.6,1-3.1,2.3c-.1.3-.2.6-.2,1.1v7.6h-2.3v-18.4Z"/>
      <path class="st3" d="M554.5,418.8c0,3.1,2,4.3,4.3,4.3s2.6-.3,3.5-.6l.4,1.6c-.8.4-2.2.8-4.2.8-3.9,0-6.2-2.5-6.2-6.3s2.2-6.8,5.9-6.8,5.2,3.6,5.2,5.9,0,.8,0,1.1h-8.8ZM561.2,417.2c0-1.4-.6-3.7-3.2-3.7s-3.3,2.1-3.5,3.7h6.7Z"/>
      <path class="st3" d="M572.9,418.8c0,3.1,2,4.3,4.3,4.3s2.6-.3,3.5-.6l.4,1.6c-.8.4-2.2.8-4.2.8-3.9,0-6.2-2.5-6.2-6.3s2.2-6.8,5.9-6.8,5.2,3.6,5.2,5.9,0,.8,0,1.1h-8.8ZM579.6,417.2c0-1.4-.6-3.7-3.2-3.7s-3.3,2.1-3.5,3.7h6.7Z"/>
      <path class="st3" d="M595.5,406.3v15.1c0,1.1,0,2.4.1,3.2h-2v-2.2h-.2c-.7,1.4-2.2,2.5-4.3,2.5-3,0-5.4-2.6-5.4-6.4,0-4.2,2.6-6.7,5.6-6.7s3.2.9,3.8,1.9h0v-7.5h2.3ZM593.2,417.2c0-.3,0-.7-.1-1-.3-1.4-1.6-2.6-3.3-2.6s-3.8,2.1-3.8,4.8,1.2,4.6,3.7,4.6,2.9-1,3.3-2.7c0-.3.1-.6.1-1v-2.2Z"/>
      <path class="st3" d="M610,412.1c0,.9-.1,1.9-.1,3.4v7.3c0,2.9-.6,4.6-1.8,5.7-1.2,1.1-3,1.5-4.6,1.5s-3.2-.4-4.2-1l.6-1.7c.8.5,2.1,1,3.7,1,2.3,0,4-1.2,4-4.4v-1.4h0c-.7,1.2-2,2.1-4,2.1-3.1,0-5.3-2.6-5.3-6.1s2.8-6.7,5.6-6.7,3.4,1.1,3.9,2.2h0v-1.9h2.1ZM607.7,417.1c0-.4,0-.7-.1-1-.4-1.3-1.5-2.4-3.2-2.4s-3.7,1.8-3.7,4.7,1.2,4.5,3.7,4.5,2.7-.9,3.2-2.3c.1-.4.2-.8.2-1.2v-2.3Z"/>
      <path class="st3" d="M615,418.8c0,3.1,2,4.3,4.3,4.3s2.6-.3,3.5-.6l.4,1.6c-.8.4-2.2.8-4.2.8-3.9,0-6.2-2.5-6.2-6.3s2.2-6.8,5.9-6.8,5.2,3.6,5.2,5.9,0,.8,0,1.1h-8.8ZM621.6,417.2c0-1.4-.6-3.7-3.2-3.7s-3.3,2.1-3.5,3.7h6.7Z"/>
      <path class="st3" d="M643.5,418.3c0,4.6-3.2,6.7-6.2,6.7s-6-2.5-6-6.4,2.7-6.7,6.2-6.7,6,2.6,6,6.4ZM633.5,418.4c0,2.7,1.6,4.8,3.8,4.8s3.8-2,3.8-4.9-1.1-4.8-3.8-4.8-3.9,2.5-3.9,4.9Z"/>
      <path class="st3" d="M646.6,424.6v-10.8h-1.8v-1.7h1.8v-.6c0-1.8.4-3.4,1.4-4.4.9-.8,2-1.2,3.1-1.2s1.5.2,1.9.4l-.3,1.8c-.3-.2-.8-.3-1.4-.3-1.9,0-2.4,1.7-2.4,3.6v.7h3v1.7h-3v10.8h-2.3Z"/>
      <path class="st3" d="M659.4,416.2c0-1.6,0-2.9-.1-4.1h2v2.1h.2c.9-1.5,2.4-2.4,4.5-2.4,3,0,5.3,2.6,5.3,6.4s-2.7,6.7-5.7,6.7-3.1-.7-3.9-2h0v6.8h-2.3v-13.6ZM661.6,419.5c0,.3,0,.6.1.9.4,1.6,1.8,2.7,3.4,2.7,2.4,0,3.8-2,3.8-4.8s-1.3-4.7-3.7-4.7-3,1.1-3.4,2.8c0,.3-.2.6-.2.9v2.1Z"/>
      <path class="st3" d="M674.1,416c0-1.5,0-2.7-.1-3.9h2v2.5h.2c.6-1.7,1.9-2.7,3.5-2.7s.4,0,.6,0v2.1c-.2,0-.5,0-.8,0-1.6,0-2.7,1.2-3.1,2.9,0,.3-.1.7-.1,1.1v6.7h-2.3v-8.6Z"/>
      <path class="st3" d="M693.7,418.3c0,4.6-3.2,6.7-6.2,6.7s-6-2.5-6-6.4,2.7-6.7,6.2-6.7,6,2.6,6,6.4ZM683.7,418.4c0,2.7,1.6,4.8,3.8,4.8s3.8-2,3.8-4.9-1.1-4.8-3.8-4.8-3.9,2.5-3.9,4.9Z"/>
      <path class="st3" d="M707.3,406.3v15.1c0,1.1,0,2.4.1,3.2h-2v-2.2h-.2c-.7,1.4-2.2,2.5-4.3,2.5-3,0-5.4-2.6-5.4-6.4,0-4.2,2.6-6.7,5.6-6.7s3.2.9,3.8,1.9h0v-7.5h2.3ZM705.1,417.2c0-.3,0-.7-.1-1-.3-1.4-1.6-2.6-3.3-2.6s-3.8,2.1-3.8,4.8,1.2,4.6,3.7,4.6,2.9-1,3.3-2.7c0-.3.1-.6.1-1v-2.2Z"/>
      <path class="st3" d="M721.6,421.2c0,1.3,0,2.4.1,3.4h-2v-2h-.2c-.6,1-1.9,2.3-4.1,2.3s-4.3-1.1-4.3-5.5v-7.3h2.3v6.9c0,2.4.7,4,2.8,4s2.6-1.1,3-2.1c.1-.3.2-.8.2-1.2v-7.7h2.3v9.1Z"/>
      <path class="st3" d="M734.3,424.2c-.6.3-1.9.7-3.6.7-3.8,0-6.2-2.6-6.2-6.4s2.6-6.7,6.7-6.7,2.5.3,3.2.6l-.5,1.8c-.5-.3-1.4-.6-2.6-.6-2.9,0-4.4,2.1-4.4,4.7s1.9,4.7,4.3,4.7,2.1-.3,2.8-.6l.4,1.7Z"/>
      <path class="st3" d="M740.1,408.5v3.6h3.3v1.7h-3.3v6.8c0,1.6.4,2.4,1.7,2.4s1,0,1.3-.2v1.7c-.3.2-1,.3-1.9.3s-1.9-.3-2.5-1c-.6-.7-.9-1.8-.9-3.3v-6.8h-1.9v-1.7h1.9v-3l2.2-.6Z"/>
      <path class="st0" d="M56.2,448.9c0-1.5,1.2-2.7,2.7-2.7s2.7,1.2,2.7,2.7-1.2,2.7-2.7,2.7-2.7-1.2-2.7-2.7Z"/>
      <path class="st0" d="M70,438.5c1.4-.2,3-.4,4.8-.4,3.2,0,5.5.8,7.1,2.2,1.6,1.4,2.5,3.4,2.5,6.3s-.9,5.2-2.5,6.8c-1.6,1.6-4.3,2.5-7.7,2.5s-3,0-4.1-.2v-17.2ZM72.3,453.9c.6.1,1.4.1,2.3.1,4.8,0,7.4-2.7,7.4-7.4,0-4.1-2.3-6.7-7.1-6.7s-2,.1-2.6.2v13.8Z"/>
      <path class="st0" d="M98.6,449.3c0,4.6-3.2,6.7-6.2,6.7s-6-2.5-6-6.4,2.7-6.7,6.2-6.7,6,2.6,6,6.4ZM88.7,449.5c0,2.7,1.6,4.8,3.8,4.8s3.8-2,3.8-4.9-1.1-4.8-3.8-4.8-3.9,2.5-3.9,4.9Z"/>
      <path class="st0" d="M107,446.6c0-1.3,0-2.4-.1-3.4h2v2.1h.2c.6-1.2,2.1-2.4,4.1-2.4s4.4,1,4.4,5.3v7.5h-2.3v-7.2c0-2-.8-3.7-2.9-3.7s-2.7,1.1-3.1,2.3c-.1.3-.2.7-.2,1.1v7.5h-2.3v-9.1Z"/>
      <path class="st0" d="M132.7,449.3c0,4.6-3.2,6.7-6.2,6.7s-6-2.5-6-6.4,2.7-6.7,6.2-6.7,6,2.6,6,6.4ZM122.8,449.5c0,2.7,1.6,4.8,3.8,4.8s3.8-2,3.8-4.9-1.1-4.8-3.8-4.8-3.9,2.5-3.9,4.9Z"/>
      <path class="st0" d="M138.3,439.6v3.6h3.3v1.7h-3.3v6.8c0,1.6.4,2.4,1.7,2.4s1,0,1.3-.2v1.7c-.3.2-1,.3-1.9.3s-1.9-.3-2.5-1c-.6-.7-.9-1.8-.9-3.3v-6.8h-1.9v-1.7h1.9v-3l2.2-.6Z"/>
      <path class="st0" d="M156.6,455.7l-.2-1.6h0c-.7,1-2,1.9-3.8,1.9-2.5,0-3.8-1.8-3.8-3.6,0-3,2.7-4.7,7.5-4.7v-.3c0-1-.3-2.9-2.8-2.9s-2.4.4-3.3.9l-.5-1.5c1-.7,2.5-1.1,4.1-1.1,3.8,0,4.8,2.6,4.8,5.1v4.7c0,1.1,0,2.1.2,3h-2.1ZM156.2,449.3c-2.5,0-5.3.4-5.3,2.8s1,2.2,2.1,2.2,2.7-1,3-2.1c0-.2.1-.5.1-.7v-2.2Z"/>
      <path class="st0" d="M172.9,437.3v15.1c0,1.1,0,2.4.1,3.2h-2v-2.2h-.2c-.7,1.4-2.2,2.5-4.3,2.5-3,0-5.4-2.6-5.4-6.4,0-4.2,2.6-6.7,5.6-6.7s3.2.9,3.8,1.9h0v-7.5h2.3ZM170.6,448.3c0-.3,0-.7-.1-1-.3-1.4-1.6-2.6-3.3-2.6s-3.8,2.1-3.8,4.8,1.2,4.6,3.7,4.6,2.9-1,3.3-2.7c0-.3.1-.6.1-1v-2.2Z"/>
      <path class="st0" d="M173.6,459.3c1,0,1.9-.4,2.5-1,.6-.7.9-1.7.9-4.7v-10.5h2.3v11.4c0,2.4-.4,4-1.5,5.2-1,1-2.7,1.4-3.9,1.4l-.2-1.8ZM179.5,439.7c0,.8-.5,1.4-1.4,1.4s-1.4-.6-1.4-1.4.6-1.4,1.4-1.4,1.4.6,1.4,1.4Z"/>
      <path class="st0" d="M193.5,452.3c0,1.3,0,2.4.1,3.4h-2v-2h-.2c-.6,1-1.9,2.3-4.1,2.3s-4.3-1.1-4.3-5.5v-7.3h2.3v6.9c0,2.4.7,4,2.8,4s2.6-1.1,3-2.1c.1-.3.2-.8.2-1.2v-7.7h2.3v9.1Z"/>
      <path class="st0" d="M196.9,453.4c.7.4,1.9.9,3,.9,1.7,0,2.4-.8,2.4-1.9s-.6-1.7-2.3-2.3c-2.3-.8-3.3-2-3.3-3.5s1.6-3.7,4.3-3.7,2.4.4,3.1.8l-.6,1.7c-.5-.3-1.4-.7-2.6-.7s-2.1.8-2.1,1.7.8,1.5,2.4,2.1c2.2.8,3.3,1.9,3.3,3.8s-1.7,3.8-4.7,3.8-2.6-.3-3.5-.9l.6-1.7Z"/>
      <path class="st0" d="M210.2,439.6v3.6h3.3v1.7h-3.3v6.8c0,1.6.4,2.4,1.7,2.4s1,0,1.3-.2v1.7c-.3.2-1,.3-1.9.3s-1.9-.3-2.5-1c-.6-.7-.9-1.8-.9-3.3v-6.8h-1.9v-1.7h1.9v-3l2.2-.6Z"/>
      <path class="st0" d="M224.3,439.6v3.6h3.3v1.7h-3.3v6.8c0,1.6.4,2.4,1.7,2.4s1,0,1.3-.2v1.7c-.3.2-1,.3-1.9.3s-1.9-.3-2.5-1c-.6-.7-.9-1.8-.9-3.3v-6.8h-1.9v-1.7h1.9v-3l2.2-.6Z"/>
      <path class="st0" d="M230.1,437.3h2.3v7.8h0c.4-.6.9-1.2,1.6-1.6.7-.4,1.5-.6,2.3-.6,1.7,0,4.4,1,4.4,5.4v7.5h-2.3v-7.2c0-2-.8-3.7-2.9-3.7s-2.6,1-3.1,2.3c-.1.3-.2.6-.2,1.1v7.6h-2.3v-18.4Z"/>
      <path class="st0" d="M245.7,449.8c0,3.1,2,4.3,4.3,4.3s2.6-.3,3.5-.6l.4,1.6c-.8.4-2.2.8-4.2.8-3.9,0-6.2-2.5-6.2-6.3s2.2-6.8,5.9-6.8,5.2,3.6,5.2,5.9,0,.8,0,1.1h-8.8ZM252.4,448.2c0-1.4-.6-3.7-3.2-3.7s-3.3,2.1-3.5,3.7h6.7Z"/>
      <path class="st0" d="M262.9,446.6c0-1.3,0-2.4-.1-3.4h2v2h.2c.7-1.2,1.9-2.3,3.9-2.3s3,1,3.5,2.5h0c.4-.7.9-1.2,1.4-1.6.8-.6,1.6-.9,2.8-.9s4.1,1.1,4.1,5.4v7.4h-2.2v-7.1c0-2.4-.9-3.9-2.7-3.9s-2.3,1-2.7,2.1c-.1.3-.2.7-.2,1.1v7.7h-2.2v-7.5c0-2-.9-3.4-2.6-3.4s-2.5,1.1-2.8,2.3c-.1.3-.2.7-.2,1.1v7.6h-2.2v-9.1Z"/>
      <path class="st0" d="M291.4,455.7l-.2-1.6h0c-.7,1-2,1.9-3.8,1.9-2.5,0-3.8-1.8-3.8-3.6,0-3,2.7-4.7,7.5-4.7v-.3c0-1-.3-2.9-2.8-2.9s-2.4.4-3.3.9l-.5-1.5c1-.7,2.5-1.1,4.1-1.1,3.8,0,4.8,2.6,4.8,5.1v4.7c0,1.1,0,2.1.2,3h-2.1ZM291.1,449.3c-2.5,0-5.3.4-5.3,2.8s1,2.2,2.1,2.2,2.7-1,3-2.1c0-.2.1-.5.1-.7v-2.2Z"/>
      <path class="st0" d="M296.6,453.4c.7.4,1.9.9,3,.9,1.7,0,2.4-.8,2.4-1.9s-.6-1.7-2.3-2.3c-2.3-.8-3.3-2-3.3-3.5s1.6-3.7,4.3-3.7,2.4.4,3.1.8l-.6,1.7c-.5-.3-1.4-.7-2.6-.7s-2.1.8-2.1,1.7.8,1.5,2.4,2.1c2.2.8,3.3,1.9,3.3,3.8s-1.7,3.8-4.7,3.8-2.6-.3-3.5-.9l.6-1.7Z"/>
      <path class="st0" d="M309.5,448.9h0c.3-.4.8-1,1.1-1.4l3.7-4.3h2.7l-4.8,5.1,5.5,7.4h-2.8l-4.3-6-1.2,1.3v4.7h-2.3v-18.4h2.3v11.6Z"/>
      <path class="st0" d="M336.2,449.3c0,4.6-3.2,6.7-6.2,6.7s-6-2.5-6-6.4,2.7-6.7,6.2-6.7,6,2.6,6,6.4ZM326.2,449.5c0,2.7,1.6,4.8,3.8,4.8s3.8-2,3.8-4.9-1.1-4.8-3.8-4.8-3.9,2.5-3.9,4.9Z"/>
      <path class="st0" d="M339,447.1c0-1.5,0-2.7-.1-3.9h2v2.5h.2c.6-1.7,1.9-2.7,3.5-2.7s.4,0,.6,0v2.1c-.2,0-.5,0-.8,0-1.6,0-2.7,1.2-3.1,2.9,0,.3-.1.7-.1,1.1v6.7h-2.3v-8.6Z"/>
      <path class="st0" d="M359.9,455.7l-.2-1.6h0c-.7,1-2,1.9-3.8,1.9-2.5,0-3.8-1.8-3.8-3.6,0-3,2.7-4.7,7.5-4.7v-.3c0-1-.3-2.9-2.8-2.9s-2.4.4-3.3.9l-.5-1.5c1-.7,2.5-1.1,4.1-1.1,3.8,0,4.8,2.6,4.8,5.1v4.7c0,1.1,0,2.1.2,3h-2.1ZM359.6,449.3c-2.5,0-5.3.4-5.3,2.8s1,2.2,2.1,2.2,2.7-1,3-2.1c0-.2.1-.5.1-.7v-2.2Z"/>
      <path class="st0" d="M365.4,447.1c0-1.5,0-2.7-.1-3.9h2v2.5h.2c.6-1.7,1.9-2.7,3.5-2.7s.4,0,.6,0v2.1c-.2,0-.5,0-.8,0-1.6,0-2.7,1.2-3.1,2.9,0,.3-.1.7-.1,1.1v6.7h-2.3v-8.6Z"/>
      <path class="st0" d="M377.3,439.6v3.6h3.3v1.7h-3.3v6.8c0,1.6.4,2.4,1.7,2.4s1,0,1.3-.2v1.7c-.3.2-1,.3-1.9.3s-1.9-.3-2.5-1c-.6-.7-.9-1.8-.9-3.3v-6.8h-1.9v-1.7h1.9v-3l2.2-.6Z"/>
      <path class="st0" d="M383,455.7c0-.9.1-2.1.1-3.2v-15.1h2.3v7.9h0c.8-1.4,2.3-2.3,4.3-2.3,3.1,0,5.3,2.6,5.3,6.4,0,4.5-2.8,6.7-5.6,6.7s-3.3-.7-4.2-2.4h0v2.1h-2.1ZM385.3,450.7c0,.3,0,.6.1.8.4,1.6,1.8,2.7,3.4,2.7,2.4,0,3.8-1.9,3.8-4.8s-1.3-4.7-3.7-4.7-3,1.1-3.5,2.8c0,.3-.1.6-.1.9v2.3Z"/>
      <path class="st0" d="M409.2,449.3c0,4.6-3.2,6.7-6.2,6.7s-6-2.5-6-6.4,2.7-6.7,6.2-6.7,6,2.6,6,6.4ZM399.2,449.5c0,2.7,1.6,4.8,3.8,4.8s3.8-2,3.8-4.9-1.1-4.8-3.8-4.8-3.9,2.5-3.9,4.9Z"/>
      <path class="st0" d="M419,455.7l-.2-1.6h0c-.7,1-2,1.9-3.8,1.9-2.5,0-3.8-1.8-3.8-3.6,0-3,2.7-4.7,7.5-4.7v-.3c0-1-.3-2.9-2.8-2.9s-2.4.4-3.3.9l-.5-1.5c1-.7,2.5-1.1,4.1-1.1,3.8,0,4.8,2.6,4.8,5.1v4.7c0,1.1,0,2.1.2,3h-2.1ZM418.6,449.3c-2.5,0-5.3.4-5.3,2.8s1,2.2,2.1,2.2,2.7-1,3-2.1c0-.2.1-.5.1-.7v-2.2Z"/>
      <path class="st0" d="M424.5,447.1c0-1.5,0-2.7-.1-3.9h2v2.5h.2c.6-1.7,1.9-2.7,3.5-2.7s.4,0,.6,0v2.1c-.2,0-.5,0-.8,0-1.6,0-2.7,1.2-3.1,2.9,0,.3-.1.7-.1,1.1v6.7h-2.3v-8.6Z"/>
      <path class="st0" d="M443.5,437.3v15.1c0,1.1,0,2.4.1,3.2h-2v-2.2h-.2c-.7,1.4-2.2,2.5-4.3,2.5-3,0-5.4-2.6-5.4-6.4,0-4.2,2.6-6.7,5.6-6.7s3.2.9,3.8,1.9h0v-7.5h2.3ZM441.2,448.3c0-.3,0-.7-.1-1-.3-1.4-1.6-2.6-3.3-2.6s-3.8,2.1-3.8,4.8,1.2,4.6,3.7,4.6,2.9-1,3.3-2.7c0-.3.1-.6.1-1v-2.2Z"/>
      <path class="st0" d="M447,453.4c.7.4,1.9.9,3,.9,1.7,0,2.4-.8,2.4-1.9s-.6-1.7-2.3-2.3c-2.3-.8-3.3-2-3.3-3.5s1.6-3.7,4.3-3.7,2.4.4,3.1.8l-.6,1.7c-.5-.3-1.4-.7-2.6-.7s-2.1.8-2.1,1.7.8,1.5,2.4,2.1c2.2.8,3.3,1.9,3.3,3.8s-1.7,3.8-4.7,3.8-2.6-.3-3.5-.9l.6-1.7Z"/>
    </g>
  </g>
</svg>